# xmcd
#
# Track frame offsets:
#  150
#  8540
#  29645
#  51732
#  87700
#  105810
#  147227
#  159460
#  171860
#  177727
#  196030
#  208517
#  227060
#
# Disc length: 3301 seconds
#
# Revision: 0
# Processed by: cddbd v1.5.1PL2 Copyright (c) Steve Scherf et al.
# Submitted via: Collectorz.com_Music_Collector 6.9
#
DISCID=af0ce30d
DTITLE=Stevie Ray Vaughan And Double Trouble - Couldn't Stand The Weather (Remastered)
DYEAR=1984
DGENRE=Blues
TTITLE0=Scuttle Buttin'
TTITLE1=Couldn't Stand The Weather
TTITLE2=The Things (That) I Used To Do
TTITLE3=Voodoo Chile (Slight Return)
TTITLE4=Cold Shot
TTITLE5=Tin Pan Alley
TTITLE6=Honey Bee
TTITLE7=Stang's Swang
TTITLE8=SRV Speaks
TTITLE9=Hide Away
TTITLE10=Look At Little Sister
TTITLE11=Give Me Back My Wig
TTITLE12=Come On (Part III)
EXTD=
EXTT0=
EXTT1=
EXTT2=
EXTT3=
EXTT4=
EXTT5=
EXTT6=
EXTT7=
EXTT8=
EXTT9=
EXTT10=
EXTT11=
EXTT12=
PLAYORDER=
